<svg xmlns="http://www.w3.org/2000/svg" width="640" height="360" viewBox="0 0 640 360"><defs><linearGradient id="bg" x2="1" y2="1"><stop stop-color="#E4E6EF"/><stop offset="1" stop-color="#C4CADF"/></linearGradient></defs><rect width="640" height="360" fill="url(#bg)"/><circle cx="490" cy="77" r="119" fill="white" opacity=".13"/><circle cx="147" cy="292" r="104" fill="white" opacity=".12"/><ellipse cx="320" cy="270" rx="123" ry="20" fill="#8D97B5" opacity=".2"/><path d="M281 210c0-30-44-48-44-93a84 84 0 0 1 168 0c0 45-43 63-43 93z" fill="#F7DE98"/><path d="M289 210h65v25h-65z" fill="#8D9BB7"/><path d="M295 235h52l-8 22h-36z" fill="#687C9E"/><path d="M305 210v-54l-20-26m48 80v-54l20-26" stroke="#C79D4B" fill="none" stroke-width="7" stroke-linecap="round"/><path d="m321 37 0-15m-103 67-14-5m238 5-14 5m-193-35-10-12m184 12 10-12" stroke="#ABB4C9" stroke-width="6" stroke-linecap="round"/><g fill="white" opacity=".48"><rect x="122" y="88" width="9" height="9"/><rect x="131" y="97" width="9" height="9"/><rect x="503" y="267" width="9" height="9"/></g></svg>